<svg xmlns="http://www.w3.org/2000/svg" viewBox="0 0 800 800">
  <g fill="none" fill-rule="evenodd">
    <rect width="800" height="800" fill="#005B82"/>
    <path fill="#FFFFFF" fill-rule="nonzero" d="M182.48 300.78c-.19.56-1.35.51-3.49-.14a117.2 117.2 0 0 1-8.79-3.2l-5.58-2.52a167.16 167.16 0 0 1-24.27-13.67c-1.3-.93-5.12-3.86-11.44-8.79-6.33-4.93-9.86-7.58-10.6-7.95-12.47 19.16-24.93 36-37.4 50.5-15.06 17.67-24.83 27.9-29.3 30.7-.74.37-2.55.74-5.43 1.1-2.89.38-4.6.38-5.16 0 1.11-.73 8.74-9.3 22.88-25.66 3.9-4.46 11.85-15.16 23.85-32.09 12-16.92 19.3-27.9 21.9-32.92 3.17-5.58 7.91-14.74 14.23-27.48 6.33-12.75 9.68-19.95 10.05-21.63-1.49-.18-11.72 2.88-30.7 9.2-1.48.38-4.04 1.08-7.67 2.1-3.62 1.02-6.83 1.9-9.62 2.65-2.8.75-4.37 1.21-4.75 1.4-.37.37-.55 1.35-.55 2.93s-.1 2.46-.28 2.65c-.93 1.86-3.82 3.25-8.65 4.18a22.5 22.5 0 0 1-13.12 0 11.77 11.77 0 0 1-7.8-5.86c-.75-1.11-1.22-3.25-1.4-6.41a53.9 53.9 0 0 1 6.83-1.4 83.37 83.37 0 0 0 8.23-1.67 523.1 523.1 0 0 0 29.3-8.93c18.6-6.51 28.09-9.77 28.46-9.77 1.86-.37 5.86-2.18 12-5.44 6.14-3.25 10.23-5.25 12.27-6 1.68-.56 3.68-1.3 6-2.23a60 60 0 0 1 4.05-1.53c.37-.1.93-.05 1.67.14.38 2.23.28 5.3-.28 9.2 0 .38-1.16 2.89-3.48 7.54-2.33 4.65-4.8 9.62-7.4 14.92a210.2 210.2 0 0 1-4.74 9.35c-4.65 9.3-11.81 21.49-21.49 36.55l17.86 7.82c2.23 1.11 9.16 4.09 20.79 8.92 11.62 4.84 17.9 7.44 18.83 7.82.75.18 1.72 2.55 2.93 7.11 1.21 4.56 1.63 7.4 1.26 8.51zm-57.2-135.6c.56 2.79.19 5.4-1.12 7.81-2.23 4.28-6.88 7.81-13.95 10.6a44.78 44.78 0 0 1-16.74 3.35c-4.84-.56-9.4-2.97-13.67-7.25-2.6-2.8-4.28-6.6-5.02-11.44l.28-.84c.55.56 2.37 1.02 5.44 1.4 3.07.37 5.53.37 7.4 0 1.85-.38 7.25-1.86 16.17-4.47 6.7-2.23 11.82-3.53 15.35-3.9 3.16 0 5.11 1.58 5.86 4.74zm194.75 36l17.58 63.33-38.78-11.72 21.2-51.62zM10.88 424.37l193.64-64.73V71.71l-193.64 65V424.4zm346.26-88.44l28.46 8.65-50.5-183.32-27.9-8.65-60.27 149.56 28.46 8.65 12.56-30.7 58.87 18.14 10.32 37.67zM216.8 67.52l159.87 51.34V12.83L216.8 67.53zm86.77 369.14l44.09 3.63-15.07 44.64-11.16-18.41c-24.18 15.44-49.85 25.48-77.01 30.13-10.79 2.23-19.25 3.35-25.4 3.35H195.6c-14.7 0-33.25-3.63-55.66-10.88-22.42-7.26-39.48-15.16-51.2-23.72-1.49-1.3-2.23-2.79-2.23-4.46a5.4 5.4 0 0 1 1.4-3.77 4.67 4.67 0 0 1 3.62-1.53c.74 0 2.42.7 5.02 2.09l8.51 4.6c3.07 1.68 4.98 2.7 5.72 3.07a247.22 247.22 0 0 0 44.5 17.16c16.1 4.56 30.74 6.84 43.95 6.84 17.67 0 33.2-1.35 46.6-4.05 13.39-2.7 27.99-7.4 43.8-14.09 2.8-1.3 5.63-2.74 8.51-4.32a747.76 747.76 0 0 0 17.44-9.9l-12-20.38zm125-301.06v301.06l-215.96-68.64c-2.6 1.12-37.48 12.98-104.63 35.58C40.83 426.2 6.6 437.5 5.3 437.5c-2.42 0-4.1-1.2-5.02-3.63 0-.18-.1-.46-.28-.83V132.25c.56-1.67.93-2.6 1.12-2.79.93-1.11 2.79-2.13 5.58-3.06a3045.03 3045.03 0 0 0 41.57-13.96V5.3l155.7 55.25c.36 0 15.3-5.12 44.77-15.35a14235.6 14235.6 0 0 1 88.17-30.27C366.21 4.98 381.23 0 381.98 0c3.72 0 5.58 1.95 5.58 5.86v116.63l41.01 13.11z" transform="translate(185 150)"/>
  </g>
</svg>
